
<!--
  - Copyright 2025 LinQingYing. and contributors.
  -
  - Licensed under the Apache License, Version 2.0 (the "License");
  - you may not use this file except in compliance with the License.
  - You may obtain a copy of the License at
  -
  -     http://www.apache.org/licenses/LICENSE-2.0
  -
  - Unless required by applicable law or agreed to in writing, software
  - distributed under the License is distributed on an "AS IS" BASIS,
  - WITHOUT WARRANTIES OR CONDITIONS OF ANY KIND, either express or implied.
  - See the License for the specific language governing permissions and
  - limitations under the License.
  -
  - The use of this source code is governed by the Apache License 2.0,
  - which allows users to freely use, modify, and distribute the code,
  - provided they adhere to the terms of the license.
  -
  - The software is provided "as-is", and the authors are not responsible for
  - any damages or issues arising from its use.
  -
  -->

<svg xmlns="http://www.w3.org/2000/svg" width="16" height="16" viewBox="0 0 16 16">
<g fill="none" fill-rule="evenodd">
    <path fill="#B99BF8" fill-opacity=".6" d="M15,8 C15,11.866 11.866,15 8,15 C4.134,15 1,11.866 1,8 C1,4.134 4.134,1 8,1 C11.866,1 15,4.134 15,8"/>
<!--    <path fill="#231F20" fill-opacity=".7" d="M2.2939,6 L-0.0001,0 L1.2,0 C2.3886,3.13933333 2.98856667,4.73933333 2.9999,4.8 L4.8,0 L5.9999,0 L3.7059,6 L2.2939,6 Z" transform="translate(5 5)"/>-->
        <path transform="translate(1, 1)" d="M4.67,9.87c.87-.04.95-.2.95-.96v-3.81c0-.77,0-.91-.89-.95v-.14h2.39c.64,0,2.2.08,2.2,1.67,0,1.4-1.4,1.97-2.35,1.88l-.81-.21v1.59c0,.75.07.88,1.1.94v.13h-2.59v-.13ZM6.17,7.12c.11.05.38.14.86.14.9,0,1.63-.44,1.63-1.55,0-1.05-.64-1.52-1.88-1.52-.27,0-.42,0-.51.02-.07,0-.1.04-.1.24v2.67Z"
              style="fill:rgba(35,31,32,.7); stroke-width:0px;"/>

</g>
</svg>
